<?xml version="1.0" encoding="UTF-8"?>
<svg data-name="Layer 1" version="1.1" viewBox="0 0 814.4 790.3" xmlns="http://www.w3.org/2000/svg">
 <path d="m359.3 0.6109c-31.28 0.9854-62.66 12.03-90 26.37-24.8 33.87-86.78 26.61-91.62 72.49-32.86 17.55-68.45 37.11-91.65 66.87-28.45 32.55-13.54 91.07-57.88 109.6 7.487 27.39-2.555 52.63-16.31 76.58-14.64 34.95 4.765 71.58-11.87 105.2 38.41 17.48 11.84 61.59 35.15 91.08-2.288 34.64 12.38 64.33 44.54 81.97 35.69 21.38 51.91 61.43 87.76 82.79 39.34 4.001 49.32 63.52 88.72 49.18 26.12 38.23 70.91-3.511 98.2 23.71 54.7 8.913 109.8-2.237 164.3-5.781 23.45-40.25 67.81 10.11 93.68-22.02 34.06-24.94 35.08-76.94 81.63-89.77 21.16-27.88 60.36-38.59 78.94-72.21-7.994-36.05-6.217-76.87 12.59-109.2 26.2 12.28 16.4-17.92 17.86-35.87-8.188-41.42 25.58-89.01-5.389-122 1.087-27.22-31.29-23.54-22.87-51.03 5.182-36.13-41.17-60.38-43.69-98.08-2.878-28.88-61.38-22.19-70.02-57.87-21.53-36.67-60.82-55.03-85.75-90.47-1.708 24.96-17.71 15.13-23.38-3.983-22.44 2.015-51.12 20.06-73.3-4.925-30.8 29.83-59.59-3.523-88.49-19.95-10.25-2.157-20.67-2.946-31.1-2.618zm150.9 80.52c11.95-0.6891 30.19 5.721 44.84 15.28 40.92 15.6 73.29 46.19 93.93 84.91 25.48 17.72 4.547 15.52-12.12 21.39 10.6 9.239 44.64 18.39 46.96 45.21 44.54 7.421 38.35 52.89 53.74 85.17 8.615 31.19-31.52-4.032-47.44 20.46-3.164 7.493-14.94 11.52-14.84 19.77 29.07-8.623-19.7 74.19 15.87 61.36 13.9-4.987 71.74 1.051 40.06 31.14-2.005 39.09-31.35 63.6-41.89 96.09-20.86 25.79-40.35 105.4-81.19 69.13-4.131 8.449-14.11 50.49 14.9 26.91 10.57 13.85-82.92 57.69-40.65 12.5-5.611-24.85-37.81 28.28-56.82 15.35 36.42-37.66-20.51-32.12-44.91-15.21-31.08 5.434-29.22-2.944-5.299-16.32-0.2216-2.313-50.57 4.207-15.39-7.443-34.76-11.76-41.53-74.9 4.064-88.48 2.365-46.72-61.17 14.46-68.95-22.74-28.58 21.68 21.46 45.9 19.21 70.67-12.31 31.43-27.46-12.84-32.52 12.45 19.64 35.89-3.981 13.4-22.97 5.138-39.96 3.586-35.29 32.4-29.32 59.05-2.103 49.94-29.17 2.508-41.52-11.06-22.15 15.77 36.57 43.34 57.97 59.21 10.64-2.59 17.49-4.435 4.264 3.183-1.059-0.9501-2.829-2.119-4.264-3.183-16.93 4.121-46.29 10.75-40.95-11.14-5.669 20-54.97-21.39-41.8-45.24-10.18-17.43-72-68.09-55.97-19.05-18.13 14.45-4.186-40.33-26.44-39.19-34.8-0.9176-48.7-66.38-75.69-49.69-40.8-44.76-40.33-110.9-43.14-168.3-10.92-42.07 39.04-73.9 43.83-104.3-46.9 29.55-6.382-28.19 1.178-46.34 0.6743-37.74 36.79-19.65 31.81 4.424 18.02 3.526 46.55-24.67 7.676-18.41-7.933-27.34 32-73.1 66.36-47.99-8.49 18.65 30.91 42.58 9.873 46.32-5.481 14.28-5.332 15.46-22.83 0.9937 10.64 10.65-19.73 36.78 0.8301 30.3 39.38-39.34 41.21 17.27 63.25 36.73-15.76 26.12 2.647 16.22 15.99 18.52-32.82 35.32 17.26 20.59 39.77 18.29 34.77 7.115 85.29-21.18 61.49-51.99-15.15 14.51-62.06 32.63-59.46-11.34-30.31-6.036-18.32-43.16 7.426-45.03 38.33-0.0738-13.88-16.27 8.238-30.79-8.333-21.59 22.32-52.9 16.62-14.58 9.97-28.55 90.14-20.92 60.47 15.51-19.7 46.77 85.88 1.689 23.7 0.1477 3.809-21.28 58.87-10.99 27.32 12.23 22.89 24.47 19.36-27.82 38.04-3.308 34.22-28.93-26.74-7.625-15.94-29.73-22.95-37.92 25.13-28.78 43.45-13.97-0.7987-17.04-9.037-61.84 17.71-27.71-8.77 40.16 54.51 34.52 30.43 1.223-14.58-42.78-43.35-22.12-70.47-28.66-25.91 26.99-52.54-49.46-11.07-18 0.4926-6.378 5.393-9.346 12.56-9.76zm-213.4 3.59c2.063-0.03351 4.141 0.1221 6.23 0.4909-21.1 17.46-35.13 67.98-60.73 30.68 15.92-12.9 34.55-30.84 54.5-31.17zm73.77 24.16c19.73 0.634 42.57 19.64 63.92 16.03 23.39 13.37-35.4 27.15-35.96 6.114-19.7-14.77-24.4-11.5-34.01 9.528-4.967-7.624-14.71-13.92-12.48-24.67 5.717-5.389 11.95-7.219 18.53-7.008zm-50.63 20.98c11.1-0.4685 18.25 20.03 4.812 37.17-18.77 34.44-17.06-12.87-22.47-10.23l0.5195-8.417c5.362-13.06 11.72-18.29 17.14-18.52zm-187 134.6c-1.558 0.0748-2.852 0.2591-3.734 0.5488-17.94 36.94 6.56 3.219 25.93 15.74 12.62-11.95-11.29-16.81-22.2-16.28zm379.5 1.724c-3.709-0.2544-5.983 2.405-4.332 10.3-4.091 5.612 8.214 20.46 9.23 7.82 30.27 9.617 6.228-17.36-4.898-18.12zm40.46 50.29c-11.92 0.1164-15.03 26.84-31.62 26.73-15.18 2.041-68.54 18.13-45.76 36.78-20.09 16.88 15.84 26.16 26.46 45.18-16.82 30.31 19.78 45.16 36.4 68.58 42 0.4068 5.39 27.09 14.08 43.81 20.74-11.95 12.02 2.871 11.43 18.16 30.62 51.36-7.307-34.82 20.39-29.56 20.63 23.76 39.26 20.11 60.42 0.1038 36.72 4.31 7.09-30.09 16.44-38.53 24.75-0.4449-1.727-53.05 3.268-73.23 7.222-1.274-46.81-2.201-50.48-35.22-38.44 11.15-59.64-17.94-45.36-52.06-6.752-7.854-11.7-10.77-15.67-10.73zm77.4 43.68c-13.66 8.492 18.98 16.73 2.375 29.48 18.78 37.51 26.12-32.85-2.375-29.48zm-522.9 21.89c-10.46-2.181 6.891 49.68 13.33 21.42l0.6504-5.32-1.816-4.304c-5.853-7.908-9.75-11.29-12.16-11.79zm109.2 14.94c-26.03 0.3122-44.47 51.67-11.68 72.66 9.114 2.643 16.73 8.933 22.6 16.3 21.1 38.16 35.46-12.2 14.61-28.48 13.33-18.24 42.61-34.21 1.408-40.76-8.744-14.25-18.26-19.82-26.94-19.72zm336.5 17.59c16.7-0.3443 35.32 6.993 37.38 23.99 5.133 5.343 12.66 5.407 18.88 8.493 37.02 18.23 4.344 39.52-21.3 43.68-9.053-25.4-34.21-24.64-50.57-40.95-24.16-21.64-5.862-34.77 15.61-35.22zm-239.8 53.61c-1.814 0.0982-3.195 2.551-3.453 8.674-2.459 9.138-21.01 7.292-4.74 15.64 32.05 19.05 16.06-24.74 8.193-24.31zm128.7 8.648c-9.75 0.3743-15.3 11.57-1.619 25.91 1.543 16.76 4.248 20.8 22.54 4.819-0.1807-12.31-28.88-5.071-2.072-18.06-5.63-9.22-12.99-12.89-18.84-12.67zm-26.64 21.1c-8.63-0.666-9.7 12.1-16.51 25.27-39.53 5.733 23.82 16.9 33.21-0.6146l0.8867-8.417 0.1113-5.787c-8.296-7.077-13.78-10.15-17.7-10.46zm102.8 6.888c-1.428 0.1446-3.744 1.341-7.398 4.073-31.74 4.213-0.0233 12.44-4.242 21.15-20.5-1.667-54.73 46.29-19.09 17.86 19.52 28.42 23.45-9.638 31.82-28.96-0.5104-5.518 3.192-14.56-1.092-14.12zm-179.5 29.14c-2.997 0.1472-7.396 2.738-13.57 8.796 10.6 48.93-43.96 40.27-72.8 28.66-39.1-16.96 0.2151 17.14-6.072 36.57-42.39-8.779 6.514 61.88 14.88 36.51-11.54-29.66 4.052 0.4103 15.51-6.308 1.409-16.27 40.52-26.78 52.2-51.83 9.49-7.799 22.84-53.04 9.85-52.4zm-200.6 67.42c9.389 0.2914 25.9 17.52 32.88 19.17 9.498 35.65-40.07 11.49-39.03-13.75 1.061-4.017 3.266-5.515 6.141-5.426zm214.1 37.28c29.01 15.22 10.83 24.23-10.26 7.866l5.412-5.639zm84.6 22.38c4.965-0.3242 10.03 4.096 11.98 13.4 45.04 7.249-20.78 28.49-23.81 5.775 0.6978-12.35 6.196-18.81 11.82-19.17zm-30.19 42.05c22.58-0.799 16.53 51.43-20.19 10.82 8.238-7.625 14.97-10.63 20.19-10.82z" fill="#fff" stroke-width=".9997"/>
</svg>
