<?xml version="1.0" encoding="UTF-8"?>
<svg width="1e3" height="1e3" version="1.1" viewBox="0 0 1e3 1e3" xml:space="preserve" xmlns="http://www.w3.org/2000/svg" xmlns:xlink="http://www.w3.org/1999/xlink"><defs><linearGradient id="c" x1="500" x2="500" y2="1e3" gradientUnits="userSpaceOnUse"><stop stop-color="#fde07a" offset="0"/><stop stop-color="#cc7a33" offset="1"/></linearGradient><linearGradient id="b" x1="49" x2="951" y1="45" y2="955" gradientUnits="userSpaceOnUse"><stop stop-color="#002272" offset="0"/><stop stop-color="#00759b" offset="1"/></linearGradient><linearGradient id="a" x1="108" x2="108" y1="13" y2="197" gradientUnits="userSpaceOnUse"><stop stop-color="#fff6da" offset="0"/><stop stop-color="#ffd66f" offset="1"/></linearGradient><filter id="d" x="-.015" y="-.014" width="1" height="1.1" color-interpolation-filters="sRGB"><feFlood flood-color="rgb(0,0,0)" flood-opacity=".35" result="flood"/><feComposite in="flood" in2="SourceGraphic" operator="in" result="composite1"/><feGaussianBlur in="composite1" result="blur" stdDeviation="1.1"/><feOffset dx="3.6" dy="3.9" result="offset"/><feComposite in="SourceGraphic" in2="offset" result="composite2"/></filter></defs><path d="m162 0h676a162 162 45 0 1 162 162v676a162 162 135 0 1-162 162h-676a162 162 45 0 1-162-162v-676a162 162 135 0 1 162-162z" fill="url(#c)" stroke-opacity=".43" stroke-width="1.4"/><path transform="matrix(.99 0 0 .98 4.7 9.4)" d="m191 45h618a142 142 45 0 1 142 142v625a142 142 135 0 1-142 142h-618a142 142 45 0 1-142-142v-625a142 142 135 0 1 142-142z" color="#000000" color-rendering="auto" dominant-baseline="auto" fill="url(#b)" image-rendering="auto" shape-rendering="auto" solid-color="#000000" stop-color="#000000" style="-inkscape-stroke:none;font-feature-settings:normal;font-variant-alternates:normal;font-variant-caps:normal;font-variant-east-asian:normal;font-variant-ligatures:normal;font-variant-numeric:normal;font-variant-position:normal;font-variation-settings:normal;inline-size:0;isolation:auto;mix-blend-mode:normal;shape-margin:0;shape-padding:0;text-decoration-color:#000000;text-decoration-line:none;text-decoration-style:solid;text-indent:0;text-orientation:mixed;text-transform:none;white-space:normal"/><g transform="matrix(4.4 0 0 4.4 24 38)" fill="url(#a)" filter="url(#d)" stroke-opacity=".43"><g stroke-width=".36"><path d="m197 164c-7.5-0.24-16-1.2-22-6.1-2.9-2.3-3.9-6.1-3.8-9.7-0.33-6.4-3.4-13-9.8-16-3-1.2-6.4-1.5-9.5-1-0.027 1.2-0.054 2.5-0.081 3.7 6.8 1.6 12 7.7 13 15-0.13 5.4 0.93 11 5.1 15 6.2 5.9 15 6.9 24 6.5 2.2 0.17 4.1-0.12 3.5-2.7 0.018-1.7 0.037-3.4 0.056-5.1z"/><path d="m152 118c7.5-0.24 16-1.2 22-6.1 2.9-2.3 3.9-6.1 3.8-9.7 0.33-6.4 3.4-13 9.8-16 3-1.2 6.4-1.5 9.5-1 0.027 1.2 0.054 2.5 0.081 3.7-6.8 1.6-12 7.7-13 15 0.13 5.4-0.93 11-5.1 15-6.2 5.9-15 6.9-24 6.5-2.2 0.17-4.1-0.12-3.5-2.7-0.018-1.7-0.037-3.4-0.056-5.1z"/><path d="m18 144c7.5-0.24 16-1.2 22-6.1 2.9-2.3 3.9-6.1 3.8-9.7 0.33-6.4 3.4-13 9.8-16 3-1.2 6.4-1.5 9.5-1 0.027 1.2 0.054 2.5 0.081 3.7-6.8 1.6-12 7.7-13 15 0.13 5.4-0.93 11-5.1 15-6.2 5.9-15 6.9-24 6.5-2.2 0.17-4.1-0.12-3.5-2.7-0.019-1.7-0.037-3.4-0.056-5.1z"/><path d="m63 98c-7.5-0.24-16-1.2-22-6.1-2.9-2.3-3.9-6.1-3.8-9.7-0.33-6.4-3.4-13-9.8-16-3-1.2-6.4-1.5-9.5-1-0.027 1.2-0.054 2.5-0.081 3.7 6.8 1.6 12 7.7 13 15-0.13 5.4 0.93 11 5.1 15 6.2 5.9 15 6.9 24 6.5 2.2 0.17 4.1-0.12 3.5-2.7 0.019-1.7 0.037-3.4 0.056-5.1z"/><path transform="translate(-.81 -.99)" d="m124 174 4.9-2.5c0.38-0.19 0.69-7.6e-4 0.69 0.43v15a3.5 3.5 45 0 0 3.5 3.5h20c0.46 0 1.2 0.072 1.6 0.21 3 0.96 6 3.8 6.3 6.4h-36a1.3 1.3 45 0 1-1.3-1.3l-0.1-20c-3e-3 -0.53 0.38-1.2 0.85-1.4z"/><path transform="matrix(-1 0 0 1 216 -.99)" d="m124 174 4.9-2.5c0.38-0.19 0.69-7.6e-4 0.69 0.43v15a3.5 3.5 45 0 0 3.5 3.5h20c0.46 0 1.2 0.072 1.6 0.21 3 0.96 6 3.8 6.3 6.4h-36a1.3 1.3 45 0 1-1.3-1.3l-0.1-20c-3e-3 -0.53 0.38-1.2 0.85-1.4z"/></g><path d="m108 13c-7.2-3.4e-5 -13 5.8-13 13 0.0079 4 1.9 7.8 5 10 0.73 0.57 1.4 1.7 1.4 2.6v50c0 1.1-0.82 2.2-1.8 2.6-0.47 0.16-1 0.34-1.6 0.53-0.97 0.33-2.5 0.9-3.5 1.3-2.4 1.1-5.7 3-7.2 4.2-0.43 0.34-1.1 0.96-1.6 1-1.7 0.26-3.2-1.5-3.2-3.6v-30c0-0.79 0.56-1.7 1.2-2.2 3.3-2.4 5.3-6.3 5.3-11-5.8e-5 -7.2-5.9-13-13-13-7.2 5.8e-5 -13 5.9-13 13 0.012 4.3 2.1 8.3 5.6 11 0.55 0.38 1 1.2 1 1.9-0.0017 22 0.0013 44 0.0041 67 0 0-0.053 39 38 39 39 0 39-37 39-37-0.07-6.7-0.25-50-0.079-75 0-0.84 0.6-1.9 1.3-2.4 3.3-2.4 5.3-6.3 5.3-10-2.5e-4 -7.2-5.8-13-13-13-7.2-3.5e-5 -13 5.8-13 13 0.01 4 1.9 7.8 5 10 0.8 0.63 1.5 1.9 1.5 2.9v36c0 3.3-2.5 4.9-5.2 3.1-0.011-0.0074-2.2-1.5-5.1-3.1-1.1-0.66-2.3-1.3-3.1-1.7-0.69-0.35-1.9-0.72-2.6-0.84-0.037-0.0057-0.075-0.011-0.11-0.017-1.4-0.22-2.6-1.5-2.6-3v-47c0-1.8 0.097-4.8 1.4-5.8 3.2-2.4 5.2-6.3 5.2-10 3e-5 -7.2-5.8-13-13-13zm0 6.8c3.5 1e-6 6.3 2.8 6.3 6.3s-2.8 6.3-6.3 6.3c-3.5-6e-6 -6.3-2.8-6.3-6.3s2.8-6.3 6.3-6.3zm32 20c3.6 7.2e-5 6.5 2.9 6.5 6.5-7e-5 3.6-2.9 6.5-6.5 6.5-3.6-7.2e-5 -6.5-2.9-6.5-6.5 7e-5 -3.6 2.9-6.5 6.5-6.5zm-64 6.4c3.4-2e-5 6.2 2.8 6.2 6.2 1.9e-5 3.4-2.8 6.2-6.2 6.2-3.4 1.9e-5 -6.2-2.8-6.2-6.2-1.9e-5 -3.4 2.8-6.2 6.2-6.2zm32 69a29 20 0 0 1 29 20 29 20 0 0 1-29 20 29 20 0 0 1-29-20 29 20 0 0 1 29-20z" stroke-width=".37"/><path d="m108 121a23 13 0 0 0-3.5 0.18c0.43 3.1 1.3 6.8 3.1 6.6 2.4-0.27 3.4-3.1 3.9-6.6a23 13 0 0 0-3.5-0.16zm9.3 1.2c-0.075 1.4-0.94 13-9.6 12-7.9-0.72-9.3-8.5-9.5-12a23 13 0 0 0-13 12 23 13 0 0 0 0.044 0.4c0.76-0.71 1.5-1.4 1.8-1.6 0.49-0.49 4.4-4.2 8-0.88 3.2 3 5.8 13 6.3 15a23 13 0 0 0 6.5 0.59 23 13 0 0 0 6.4-0.57c0.21-1.3 0.94-3.4 2.7-8.4 2.8-7.7 5.6-7.4 7.7-7.7 1.8-0.24 4.7 3.2 5.6 4.3a23 13 0 0 0 0.11-0.99 23 13 0 0 0-13-12zm-26 16c-0.0091-7.3e-4 -0.017 1e-3 -0.024 6e-3 -0.19 0.12-1.1 1.3-2.4 3.5a23 13 0 0 0 5.2 3.4c-0.17-0.61-0.39-1.5-0.61-2.5-0.41-2-1.8-4.4-2.1-4.5zm33 0.28c-0.028 6e-3 -0.052 0.021-0.072 0.045-0.32 0.39-1.7 3.7-2.1 4.6-0.3 0.71-0.59 1.4-0.65 2.3a23 13 0 0 0 5.5-3.5c-0.25-0.42-0.53-0.83-0.67-1.1-0.3-0.53-1.6-2.4-2-2.3z" stroke-width=".41"/></g></svg>
