<?xml version="1.0" encoding="UTF-8" standalone="no"?>
<!-- Created with Inkscape (http://www.inkscape.org/) -->

<svg
   width="800"
   height="810"
   viewBox="0 0 800 810"
   version="1.1"
   id="svg1"
   xmlns="http://www.w3.org/2000/svg"
   xmlns:svg="http://www.w3.org/2000/svg">
  <defs
     id="defs1" />
  <g
     id="layer1">
    <path
       d="m 506.62668,330.50488 c -6.50481,-14.10844 14.54838,-19.64651 24.83239,-21.00908 25.49174,-3.16453 54.45574,14.9872 51.64282,43.11632 -0.57158,5.49396 -4.0875,9.58146 -9.84519,9.8452 -4.96659,0.2194 -10.37267,-4.70286 -9.8452,-9.8452 0.21941,-1.93382 0.26329,-3.91175 0.09,-5.84557 -1.49433,-10.19681 -11.69159,-16.21813 -21.40402,-17.53682 0.35106,-0.045 -0.65934,-0.17553 -1.05428,-0.30717 0.045,0.045 0.09,0.045 0.13165,0.045 -7.3399,-0.79099 -15.03108,0.57158 -21.05296,5.01047 -4.52699,3.12053 -10.76817,0.65935 -13.4491,-3.51614 z m 34.50206,-1.45045 c 0.39606,0.21941 0.79099,0.26329 0.96651,0.21941 -0.35105,-0.09 -0.65934,-0.17553 -0.96651,-0.21941 z M 252.09635,317.93465 c 0.13164,0.09 0.26329,0.21941 0.48382,0.30717 -0.17553,-0.13165 -0.30717,-0.21941 -0.48382,-0.30717 z m -14.15233,-3.47215 c 3.25241,-0.87875 6.63668,-0.35105 9.71333,0.87876 -0.92264,-0.43994 0.2194,0.09 0.79099,0.2194 -0.13165,-0.045 -0.21941,-0.045 -0.35105,-0.09 1.40645,0.65935 2.63716,1.53832 3.95563,2.4173 -0.57159,-0.5277 0.5277,0.35106 0.79099,0.48382 -0.13165,-0.045 -0.17553,-0.13164 -0.26329,-0.17552 9.0101,8.08712 10.72417,17.84399 7.20803,28.12912 -1.67019,4.87861 1.88994,10.98792 6.85653,12.08653 5.44996,1.23059 10.32868,-1.6702 12.08653,-6.85653 10.72417,-28.39242 -14.9872,-64.12541 -46.06201,-56.12661 -12.39482,3.69189 -7.3399,21.9756 5.23022,18.98716 z m 10.10894,1.0104 c -0.13165,-0.045 -0.26329,-0.09 -0.39606,-0.13164 0.13164,0.045 0.26329,0.09 0.43994,0.13164 -0.045,0 -0.045,0 -0.045,-0.045 z m 105.26481,-95.85843 c 5.27421,-0.21941 9.93307,-4.35124 9.84519,-9.8452 -0.17552,-2.72503 0.39606,-5.45007 1.27459,-7.95525 5.23022,-11.29553 19.33934,-15.38326 30.98592,-14.15233 -0.13165,-0.045 -0.17553,-0.045 -0.30717,-0.13164 4.43911,0.70323 8.92222,2.02181 12.48258,4.9226 11.20766,6.32905 20.78967,-9.8012 9.93307,-17.00912 -26.85432,-19.03104 -75.33317,-1.53833 -74.01448,34.32653 0.09,5.14234 4.43911,10.06494 9.84519,9.84519 z m 42.06204,-31.95244 c 1.45045,0.57158 0.87876,0.17553 0,0 z m -47.95116,70.10341 c 5.97744,-11.3833 16.65807,-28.52519 51.33566,-27.68919 30.15105,1.0104 45.13824,25.31621 50.19248,37.66715 33.62331,7.82338 59.33446,62.5873 29.93164,88.9578 -16.0426,14.89943 -39.68794,22.76658 -60.30209,15.64654 -19.51486,25.18457 -61.79631,21.4929 -76.16804,-14.54838 -58.63123,-11.55882 -42.63363,-97.08937 5.01047,-99.99004 z m 5.36209,16.52642 c -37.79879,-0.70323 -42.85303,66.23509 -5.27421,66.89444 9.05409,-2.94479 17.18465,-13.4491 16.21813,-22.54719 -1.36246,-11.95487 -3.82376,-23.99752 -3.86776,-24.12916 -1.97781,-8.35086 9.62545,-13.84516 14.81168,-6.98829 1.53832,1.84595 7.12015,7.29602 12.35093,7.99925 7.91126,1.14272 12.4387,-3.95563 13.05417,-4.65886 5.58183,-10.50443 16.48141,-20.08644 29.93164,-23.20653 -5.05447,-8.61448 -14.85556,-20.1742 -31.77691,-20.70078 -28.08525,-0.83487 -31.38198,10.54842 -38.14985,22.94324 -1.49433,2.68104 -4.30724,4.39512 -7.3399,4.39512 z m 88.91392,9.31772 c -14.32786,-2.15368 -33.66719,14.46062 -27.60143,27.20649 1.71408,1.75807 5.18634,2.10968 6.76855,2.15368 7.42788,-0.26329 11.47105,9.66944 5.88956,14.59226 -5.40608,5.05447 -8.61449,11.82323 -8.61449,18.19617 0.57158,22.89936 39.20525,9.84519 49.18209,-1.31858 20.17421,-20.4375 -3.20852,-58.01576 -25.62338,-60.82867 z m -36.30458,77.79503 c -6.5488,-9.66933 0.96652,-18.8994 -15.29549,-22.85435 -17.3613,-5.05447 -18.5911,9.88919 -30.89816,15.99872 6.5488,16.78971 34.45818,24.65687 46.19365,6.90041 z m -24.78851,-40.48006 c 8.175,-0.74711 18.63498,1.75807 25.49174,6.32905 0.17553,-0.35105 0.30717,-0.74711 0.5277,-1.09928 -5.3182,-3.34039 -8.35086,-6.90042 -10.10893,-14.50451 -4.8786,1.27459 -11.42718,1.2306 -16.65807,-0.57158 0.43994,3.20852 1.0104,6.59279 0.79099,9.84519 z M 265.19214,707.08118 c -0.65934,2.90079 -1.71407,5.53795 -3.03265,8.04313 0.92263,1.45045 1.80206,3.07665 2.59316,4.96659 96.07897,37.0078 217.21311,30.63487 307.53011,-18.1084 1.80206,-1.0104 4.17537,0.43994 4.13149,2.50529 v 21.93171 c 0,36.04017 -80.959,66.49951 -176.77468,66.49951 -52.47882,0 -107.41837,-9.71333 -141.87205,-26.76655 -7.55976,8.13111 -18.10841,12.17428 -27.02984,13.6685 -2.28544,37.27109 -61.8402,39.77683 -75.46482,7.73551 C 104.2005,813.00433 39.853435,750.15374 80.862324,702.3781 70.138151,674.46839 100.55271,641.54943 130.04441,651.74568 c 3.95563,-5.84557 9.71333,-11.29553 16.87748,-15.77819 C 45.260978,546.35035 0.07660072,416.60532 0.07660072,357.09534 -0.93379746,315.60488 7.5923654,282.24599 53.214769,280.97118 44.248554,245.06266 80.596785,207.26387 116.28589,212.6264 c -1.36246,-26.50326 19.82204,-48.6105 45.40266,-52.25828 -18.54722,-45.53431 32.08521,-86.277661 67.02608,-68.872484 10.85604,-6.812536 29.05176,-16.305891 58.4557,2.373423 13.18581,-12.438699 33.84271,-20.52526 51.24789,-18.54722 -12.96528,-33.095603 21.71231,-84.6067822 64.47758,-65.8840364 31.29309,-22.3277746 69.66347,-2.0656904 71.94868,29.7549884 21.9756,5.53795 38.85307,27.382016 42.50086,50.325255 20.13032,-2.681043 42.80915,7.515765 57.09312,23.469824 16.96524,-1.0104 32.43626,9.88918 38.94084,25.44785 32.21685,1.0104 55.90719,22.37166 58.32405,62.54343 32.8762,-11.99876 68.96024,20.39361 65.70739,54.28021 184.38079,34.72146 -58.10465,599.89297 -472.22051,451.91127 z m -15.16384,38.67755 c 3.99962,-18.24005 -3.99963,-24.08528 -4.35124,-24.30582 -1.75807,-2.02181 -6.81254,-4.57098 -8.219,-6.9444 -3.60401,-6.41693 1.49434,-13.27357 -4.39523,-21.18461 -8.92222,-14.41561 -32.65566,-13.49298 -39.77683,-2.37342 8.35086,0.92263 12.04264,11.6027 4.35124,16.21813 -2.94478,1.71407 -6.50481,4.35123 -7.25203,5.40608 -0.39606,1.18671 -0.70323,7.47177 1.49433,12.30705 1.0104,2.15368 2.81292,6.59279 4.39512,8.26299 3.86776,2.37342 5.14234,7.42789 2.85691,11.42717 -2.37342,4.0875 -7.55976,5.45008 -11.64771,3.03266 -15.69043,-7.64763 -24.92015,8.74636 -20.6569,23.11877 1.05428,4.26336 2.68104,8.61449 4.96659,12.08652 9.62545,15.69043 46.50082,14.10844 41.70986,-9.14197 -1.18671,-5.49395 3.77988,-10.76816 9.31772,-9.97706 1.80206,-0.045 12.26205,-0.74711 19.77815,-6.5488 3.73589,-2.81291 6.1533,-6.5488 7.3839,-11.29553 z m -100.20945,25.44786 c -1.40646,-9.22985 -0.79099,-18.59111 3.47215,-26.19497 -5.80158,-7.3839 -12.35094,-4.70285 -19.9098,1.40646 -3.47215,3.03265 -8.79035,2.72503 -11.911,-0.74711 -2.72503,-3.12054 -2.76891,-7.69152 -0.26328,-10.85605 1.71407,-7.60364 4.04361,-17.31741 -0.52771,-23.64646 -5.53795,-8.52662 -16.96523,-6.85653 -24.12916,-0.65935 -35.645228,31.38198 16.87747,83.0248 53.26981,60.69703 z M 95.933572,691.38963 c 3.64801,-1.58232 7.383898,-2.50529 11.075898,-2.85691 2.24155,-6.28506 7.12016,-12.30705 15.03108,-15.55878 0.17553,-1.88994 0.61547,-3.73588 1.05428,-5.58183 -18.24005,-2.28543 -27.162608,10.72417 -27.162608,23.99752 z M 82.484474,244.18154 c -11.691589,12.13041 -13.932918,28.56907 -5.933445,44.04009 0.878754,1.75807 1.230706,3.69189 1.05428,5.53795 4.263363,-2.94478 8.834345,-5.80158 13.9768,-6.68067 3.076651,-30.37045 41.183291,-41.9304 62.543421,-24.92015 48.25945,-17.14077 75.90476,50.54466 43.07244,75.90475 0.83488,10.76817 0.57159,27.07372 -22.19613,41.9304 119.80757,20.39362 337.8533,19.9098 456.22066,-1.05428 -14.89944,-14.76779 -13.9768,-29.18453 -12.70199,-39.02972 -14.06456,-12.96528 -20.39361,-36.08404 -6.37305,-59.02728 7.20804,-15.03108 33.8866,-32.12909 56.17049,-19.77815 14.72391,-9.97707 32.3485,-10.24081 48.43498,-0.17553 7.55976,-31.0298 -26.15108,-55.68667 -49.62203,-34.98588 -3.12053,2.72504 -7.69151,3.16453 -11.25165,1.14272 -3.60401,-2.02181 -5.58183,-6.15319 -4.8786,-10.19681 4.83472,-36.43622 -9.71332,-55.20285 -34.15101,-58.58734 -0.5277,8.175 -3.12053,17.80011 -9.75732,28.83235 11.51494,7.16415 17.53683,20.13033 16.48142,36.4801 -1.6262,48.74215 -53.5331,64.96028 -84.34349,30.85428 -28.964,27.29425 -74.80547,3.2524 -80.87124,-40.91888 -6.90041,-38.32537 32.26073,-71.64151 67.86095,-64.30093 6.68067,-17.00912 17.18465,-25.84392 25.49174,-30.41434 -10.76817,-7.07627 -18.76775,-12.17428 -36.87503,-8.70248 -10.98791,26.06333 -45.79759,41.84264 -72.16921,33.00785 -38.23761,28.70071 -93.35382,-1.09929 -90.49702,-42.63363 -14.94332,-10.020947 -31.3381,-4.395122 -38.06208,-1.230595 -4.57099,2.153675 -8.74636,4.966595 -12.4387,8.174995 11.0319,15.55879 11.0319,34.23878 9.58145,44.21562 25.00904,23.82199 19.29433,84.0802 -19.4271,91.81571 -20.92132,4.74685 -46.062,-0.65934 -59.86215,-17.14076 -30.0194,13.62462 -63.33441,-17.49294 -58.93952,-47.07241 -23.77811,-1.14271 -43.24909,18.72388 -35.20529,44.2595 2.37342,7.7795 -6.46092,15.16384 -13.71351,11.47105 -15.47102,-7.29602 -31.997442,-0.61546 -41.534341,9.27384 z M 186.43059,163.31031 c 9.0101,2.02181 21.71231,-2.85691 25.44786,-11.16378 3.2964,-7.38389 7.07628,-17.31741 8.96622,-22.7227 1.97781,-6.76855 12.21816,-7.64764 15.33937,-1.31858 1.75807,4.52699 2.81291,12.35093 7.51576,15.95484 6.10931,4.8786 12.61423,2.90078 13.66851,2.54917 10.94403,-6.63667 25.09681,-8.57061 37.62327,-4.65886 0.65934,-12.1304 -6.15331,-29.13952 -18.94328,-35.16141 -22.41554,-12.877512 -30.81039,-5.58183 -42.54474,1.49433 -2.63716,1.58221 -5.93345,1.58221 -8.57061,0.045 -33.05172,-19.602625 -70.19117,35.33694 -38.50202,54.98344 z m 39.51242,47.16017 c -0.96651,-11.82324 10.54843,-16.08649 -1.5822,-27.82196 -12.21817,-13.05416 -21.27237,-1.27459 -34.76535,-1.75807 -3.07665,17.66847 17.36129,38.32537 36.30457,29.57946 z m -0.74711,-47.77564 c 7.42789,3.51614 15.16385,10.98792 18.72387,18.3717 0.35106,-0.21941 0.65935,-0.43994 1.0104,-0.65935 -2.8569,-5.58183 -3.69189,-10.19681 -1.31858,-17.66846 -4.83472,-1.36247 -10.50443,-4.70286 -14.06456,-8.96611 -1.27459,2.98867 -2.50529,6.15319 -4.35124,8.87823 z m 62.76283,64.25705 c 26.4155,-7.47177 25.44786,-44.04008 13.71351,-60.65314 -9.05409,-14.10845 -40.04012,-12.4387 -42.50085,4.61497 0.57158,2.28544 3.34039,4.48311 4.61497,5.23022 6.63668,3.47215 5.18634,14.19621 -2.24155,15.64655 -7.20803,1.6262 -13.40522,5.84557 -16.65807,11.29553 -11.16377,19.99756 28.78847,28.39241 43.02856,23.86587 z m 76.8274,-143.064732 c 7.38389,4.043618 4.04361,12.482581 4.08749,19.162682 -0.13164,9.22984 2.68105,18.8994 20.08645,29.62335 14.46062,8.83435 29.05176,4.57098 37.97432,0.13165 -9.58146,-10.02095 -13.49298,-24.08529 -12.35094,-35.864643 -0.17552,-1.054279 -1.36246,-7.691515 -8.30686,-11.031905 -4.70286,-2.241554 -12.4387,-0.74711 -14.81168,-0.04501 -8.13111,2.725037 -14.5045,-8.174999 -8.43873,-14.020681 -0.30717,0.396058 10.28468,-10.592416 16.48141,-18.064524 5.27421,-7.120157 4.35124,-15.778189 1.23071,-24.216927 -7.73551,-12.745869 -31.73303,-9.8012 -42.85304,11.0759 -9.31771,17.228526 -5.7137,33.051722 6.85653,43.249092 z m 50.50078,-62.543422 c 6.81253,11.647708 0.5277,24.965161 16.30589,29.975521 15.55878,6.373047 15.73431,-5.977439 26.50326,-10.592416 C 457.56836,19.71776 430.0547,10.75132 415.28691,21.299742 Z m 41.6221,47.072403 c -2.63716,6.856531 3.91175,16.526424 -3.38427,21.492902 -5.66982,4.0875 -9.36171,-1.45045 -15.25161,-2.021809 -3.2524,-0.571584 -6.5488,5.933445 -6.85653,9.933069 -1.84595,11.471059 6.24117,27.997489 20.39361,30.326579 18.81164,3.20852 48.69827,-10.54842 49.05045,-33.754956 0.74711,-19.909795 -34.76535,-59.774392 -43.90732,-26.019441 z m -48.17056,0.571584 c 5.40608,1.318581 10.85604,4.966591 14.24008,8.702476 5.71371,-5.450074 10.15282,-6.768542 16.43754,-6.636673 0.09,-0.396058 0.17553,-0.790991 0.21941,-1.230706 -8.57061,-0.30717 -17.93288,-3.20852 -24.78851,-8.658482 -1.6702,2.812913 -3.95563,5.362087 -6.06532,7.779504 z M 539.62889,161.9016 c -1.2307,4.83472 -6.98829,7.60364 -11.51494,5.45008 -24.12916,-8.08713 -56.87371,8.83434 -53.18205,43.95119 2.72504,21.62455 18.63499,35.20529 32.92008,37.35886 6.10931,0.96651 17.09688,0.61546 22.94324,-12.04264 2.50529,-5.88957 11.25165,-6.5928 14.68003,-1.18672 19.73427,31.0298 59.5111,25.62339 61.09308,-13.00915 2.10969,-21.53679 -16.52642,-28.12913 -33.93047,-23.11877 -9.31772,2.72504 -16.78971,8.6146 -18.94328,14.94332 -1.31858,4.0435 -5.53795,6.41693 -9.62545,5.62582 -4.17537,-0.79099 -7.07627,-4.57098 -6.81254,-8.79035 0.57159,-16.17425 -7.07627,-19.51486 -13.62462,-20.9652 -11.25165,-4.30724 -4.74685,-19.99756 6.41693,-15.86708 11.51494,1.75807 21.27237,-10.1968 21.36013,-10.32867 4.57098,-6.10931 15.07496,-2.63717 15.07496,5.01047 0.09,3.47215 2.81292,9.09797 6.5488,13.09804 5.97744,-1.09928 11.911,-1.36246 17.40518,-0.65934 34.4143,-51.11625 -35.86464,-75.72924 -50.89572,-19.55875 z m 14.32785,22.32778 c -1.75807,1.18671 -3.69189,2.32943 -5.75769,3.34039 0.87875,1.31858 1.84594,2.59316 2.54917,4.13149 1.75807,-1.31858 3.77988,-2.4613 5.80158,-3.56013 -0.87876,-1.31859 -1.88994,-2.54918 -2.59317,-3.91175 z m -375.04,497.97553 c -6.98829,-5.27421 -14.46062,2.02181 -18.41557,8.61449 -3.38428,6.98828 -12.08653,9.09797 -16.3059,1.71407 -0.74711,-1.27458 -5.88956,-5.93344 -12.39481,-4.79072 -3.77988,0.48382 -6.50481,2.50529 -7.77951,4.35123 11.51494,6.06532 17.40518,18.98716 16.21813,32.12909 9.62545,-1.49433 15.99872,-0.17553 24.78851,8.57061 3.2524,-1.80207 6.81254,-3.03266 10.54842,-3.60402 -3.47214,-11.47106 -3.64801,-22.19613 3.34028,-29.09564 -3.03266,-4.96659 -3.64801,-11.47106 0.045,-17.93288 z m 4.83472,-355.16959 c 25.80004,-16.21813 0.83488,-63.15889 -25.18457,-48.0828 -4.52698,5.80157 -5.53794,16.13036 -1.18671,21.66843 6.41693,7.91126 13.62463,15.33937 13.66851,15.42713 6.1533,5.97744 -0.61547,16.78972 -8.70248,13.88904 -1.75807,-0.57158 -7.82338,-1.84594 -11.51494,-0.13164 -5.36208,2.4613 -6.28506,7.29602 -6.41693,8.26298 0.70323,9.8452 -2.54917,21.27237 -10.10893,29.75499 22.37166,11.73547 50.76407,-8.39474 45.88536,-30.23881 -0.65935,-3.86775 -0.045,-8.30687 3.60401,-10.46054 z M 653.68788,375.162 c 9.58146,-1.75807 18.63498,-3.56013 27.33814,-5.45007 -4.87861,-8.52661 -6.5928,-18.41558 -5.49396,-26.94208 -0.09,-0.96651 -0.87875,-6.63667 -6.94441,-9.8012 -4.17537,-2.15368 -11.33941,-0.92263 -13.05416,-0.48382 -3.73589,1.05428 -7.69152,-0.65934 -9.58146,-4.04362 -1.88993,-3.38438 -1.2307,-7.60364 1.58221,-10.2408 0.09,-0.09 8.26299,-7.7795 15.64655,-15.99872 5.45007,-6.28506 4.8786,-17.62458 -0.30717,-24.52522 -27.9536,-18.41558 -58.32406,32.61178 -30.54598,51.86336 2.50529,1.75807 3.82376,4.79072 3.47214,7.82338 -2.19756,12.48258 -3.29639,25.14069 17.88788,37.79879 z m 65.92792,-63.81823 c -3.60402,4.61498 -4.61498,11.33941 -3.34039,17.88787 0.70323,3.47215 -0.79099,6.98829 -3.77988,8.83435 -5.88956,3.77988 -8.79035,-1.45045 -14.46062,-2.24156 -10.15281,4.17538 -6.28506,22.45942 0.92264,29.71111 22.28389,-5.49395 40.83111,-11.47106 55.11508,-17.5807 5.88956,-14.32785 -21.09685,-54.23633 -34.45818,-36.65563 z m -576.60206,-2.02181 c -3.95563,2.76892 -9.22984,5.05447 -14.24009,5.88956 2.28544,0.70323 4.83472,2.02181 7.3839,4.35124 2.54917,-2.4613 6.24117,-4.79073 9.97706,-6.06531 -1.09929,-1.31858 -2.24155,-2.68105 -3.12053,-4.17538 z m 529.88521,7.25203 c 4.43911,1.45045 8.79035,4.65885 11.64771,7.82338 5.01047,-4.21937 8.65848,-5.36209 13.75739,-5.3182 -7.03228,-0.43994 -15.20773,-3.6919 -20.70079,-8.175 -1.31858,2.06569 -3.03265,3.86775 -4.70285,5.66982 z m 44.21561,-24.43746 c -0.17553,-18.28393 -23.73423,-26.81043 -37.05169,-18.45946 2.90079,5.84557 3.07666,12.1304 3.82377,17.66847 -0.74711,6.68066 18.32781,14.59226 22.24001,9.84519 3.03265,-4.04362 6.76854,-7.12016 10.98791,-9.05409 z M 141.64891,274.20365 c -11.33941,-7.3839 -32.0852,-1.14272 -33.13948,14.89943 8.83434,3.99963 6.90041,13.05417 19.6465,8.87823 13.71352,-3.99962 8.175,-14.28397 13.49298,-23.77811 z m -63.686586,76.16804 c 17.580703,18.50334 51.204006,17.66847 49.622026,-11.95488 -0.48382,-2.63716 -1.23059,-6.02143 -3.86775,-7.16415 -5.31821,0.09 -8.48274,5.31821 -14.28397,1.14272 -2.85691,-2.02181 -4.17538,-5.53795 -3.34039,-8.92222 2.54917,-8.39474 -1.45045,-23.25041 -11.735475,-19.86591 -15.998721,6.5048 -32.304612,31.07368 -16.393654,46.76411 z M 729.41036,274.73022 c 2.68105,4.79073 4.35124,10.32868 4.48311,16.26201 20.08645,6.02144 34.942,26.8982 37.4905,48.25946 2.72503,-1.6702 5.09846,-3.34028 7.20814,-4.96659 -1.67019,-26.45938 -11.0319,-58.54346 -49.18209,-59.59887 z M 20.860199,334.41685 c 8.131118,6.37305 21.140726,12.83364 38.545903,19.07493 -10.108932,-16.48142 -3.20852,-37.40274 8.570607,-50.89572 -26.238848,-6.98829 -47.468461,4.39512 -47.116285,31.86467 z m 118.536131,336.8069 c 4.17538,0.79099 7.95526,2.50529 11.11978,4.57098 7.12016,-11.33941 30.76652,-17.93288 40.91888,-5.01047 17.44906,-10.72417 43.64403,-4.39512 54.80791,11.99876 -12.30705,-41.18329 -89.92544,-60.21433 -106.80291,-11.55882 z"
       id="path1"
       style="fill:#ffffff;fill-opacity:1;stroke-width:11.2516" />
  </g>
</svg>
