<?xml version="1.0" encoding="UTF-8" standalone="no"?>
<svg
   width="1200pt"
   height="1200pt"
   version="1.1"
   viewBox="0 0 1200 1200"
   id="svg1"
   sodipodi:docname="circuit.svg"
   inkscape:version="1.4-beta (62f545b, 2024-04-22)"
   xmlns:inkscape="http://www.inkscape.org/namespaces/inkscape"
   xmlns:sodipodi="http://sodipodi.sourceforge.net/DTD/sodipodi-0.dtd"
   xmlns="http://www.w3.org/2000/svg"
   xmlns:svg="http://www.w3.org/2000/svg">
  <defs
     id="defs1" />
  <sodipodi:namedview
     id="namedview1"
     pagecolor="#505050"
     bordercolor="#eeeeee"
     borderopacity="1"
     inkscape:showpageshadow="0"
     inkscape:pageopacity="0"
     inkscape:pagecheckerboard="0"
     inkscape:deskcolor="#d1d1d1"
     inkscape:document-units="pt"
     inkscape:zoom="0.486875"
     inkscape:cx="800"
     inkscape:cy="800"
     inkscape:window-width="1920"
     inkscape:window-height="1011"
     inkscape:window-x="0"
     inkscape:window-y="0"
     inkscape:window-maximized="1"
     inkscape:current-layer="svg1" />
  <path
     d="m710.48 430.82c-39.141-39.145-90.645-63.508-145.73-68.938-55.09-5.4297-110.36 8.4102-156.39 39.164-46.027 30.75-79.969 76.512-96.043 129.48-16.07 52.973-13.277 109.88 7.9062 161.02 21.184 51.145 59.441 93.363 108.26 119.46 48.82 26.098 105.18 34.457 159.47 23.66 54.293-10.801 103.16-40.09 138.28-82.879 35.117-42.793 54.312-96.438 54.312-151.79 0.042969-31.426-6.125-62.547-18.148-91.582-12.027-29.031-29.668-55.402-51.918-77.594zm-183.16-97.641h-0.003906c-68.344 3.582-132.71 33.254-179.82 82.902-47.113 49.645-73.375 115.47-73.375 183.91s26.262 134.27 73.375 183.91c47.109 49.648 111.48 79.32 179.82 82.902v242.91h-53.707c-1.9922 0.011719-3.9219-0.70703-5.418-2.0234-1.7539-1.6406-2.8945-3.8242-3.25-6.1992l-19.578-114.71c-0.92188-5.5078-5.0508-9.9258-10.484-11.219-29.383-8.3242-57.68-20.09-84.301-35.051-5.0938-2.8555-11.422-2.2383-15.867 1.5391l-93.965 66.582c-1.9609 1.418-4.3438 2.1328-6.7578 2.0195-1.9805-0.11328-3.8477-0.95312-5.2422-2.3594l-95.75-95.75c-1.4023-1.3906-2.2422-3.2539-2.3594-5.2266-0.11328-2.3945 0.58984-4.7578 1.9961-6.6953l67.301-95.004c3.0859-4.375 3.3867-10.133 0.76953-14.805-7.5469-13.402-14.297-27.242-20.211-41.441-5.8672-14.148-10.887-28.633-15.031-43.379-1.4609-5.1836-5.7695-9.0664-11.078-9.9805l-114.57-19.652c-2.3789-0.35156-4.5664-1.5-6.2031-3.2578-1.3203-1.4922-2.043-3.418-2.0352-5.4062v-135.41c-0.011719-1.9883 0.71484-3.9141 2.0352-5.4062 1.6367-1.7578 3.8242-2.9062 6.2031-3.2578l114.71-19.566c5.5039-0.92188 9.9219-5.0547 11.215-10.484 8.3438-29.387 20.129-57.688 35.105-84.316 2.8633-5.082 2.25-11.414-1.543-15.852l-66.668-93.98c-1.4336-1.9492-2.1523-4.3359-2.0352-6.7578 0.11328-1.9727 0.95703-3.8359 2.3633-5.2266l95.746-95.746v-0.003907c1.3945-1.4062 3.2617-2.2461 5.2422-2.3594 2.418-0.11719 4.8008 0.59375 6.7578 2.0195l94.988 67.301c4.375 3.0977 10.141 3.4023 14.82 0.78516 26.773-15.051 55.242-26.867 84.805-35.191 5.1953-1.4453 9.0859-5.7656 9.9805-11.078l19.641-114.64c0.35156-2.375 1.4961-4.5625 3.25-6.2031 1.4961-1.3164 3.4219-2.043 5.418-2.0352h53.734v242.89zm109.36 171.41c29.664 29.66 43.848 71.43 38.375 113.02-5.4727 41.59-29.98 78.27-66.309 99.246-36.328 20.977-80.348 23.863-119.1 7.8086-38.758-16.051-67.844-49.219-78.699-89.738-10.859-40.52-2.2539-83.785 23.285-117.07 25.539-33.277 65.105-52.789 107.05-52.785 35.789-0.046875 70.117 14.176 95.395 39.512zm-95.395-67.453c50.633-0.003906 98.391 23.543 129.22 63.715 30.828 40.168 41.219 92.391 28.117 141.3-13.105 48.91-48.207 88.945-94.988 108.33-46.781 19.379-99.914 15.898-143.77-9.418-43.852-25.312-73.438-69.586-80.047-119.79-6.6133-50.203 10.5-100.62 46.301-136.43 30.512-30.594 71.957-47.766 115.16-47.711zm611.37 200.99c11.863-11.855 17.539-28.555 15.355-45.188-2.1875-16.629-11.98-31.297-26.508-39.688-14.523-8.3906-32.125-9.5469-47.621-3.1289-15.496 6.418-27.129 19.676-31.473 35.879-4.3438 16.199-0.90234 33.5 9.3086 46.809s26.031 21.109 42.805 21.109c14.305 0.015625 28.027-5.6641 38.133-15.793zm-254.1-533.62c-0.003906-16.762-7.8008-32.566-21.102-42.766-13.297-10.199-30.582-13.633-46.773-9.293-16.188 4.3398-29.434 15.961-35.848 31.445-6.4102 15.488-5.2539 33.074 3.125 47.586 8.3828 14.516 23.039 24.305 39.652 26.492 16.617 2.1836 33.305-3.4805 45.156-15.332 10.129-10.105 15.812-23.828 15.789-38.133zm-15.789 1029.1c11.832-11.871 17.469-28.566 15.258-45.176-2.2148-16.613-12.023-31.25-26.551-39.609-14.523-8.3594-32.109-9.4883-47.582-3.0547-15.477 6.4336-27.078 19.695-31.398 35.887-4.3203 16.191-0.86328 33.473 9.3555 46.758 10.215 13.285 26.027 21.062 42.785 21.047 14.309 0.015625 28.031-5.6719 38.133-15.801zm183.16-752.49h0.003907c-0.003907-16.762-7.8047-32.562-21.102-42.766-13.301-10.199-30.586-13.633-46.773-9.293-16.188 4.3398-29.438 15.965-35.848 31.449-6.4141 15.484-5.2578 33.07 3.125 47.586 8.3789 14.512 23.035 24.301 39.652 26.488s33.305-3.4805 45.156-15.332c10.125-10.102 15.809-23.828 15.789-38.133zm-15.789 475.87h0.003906c11.863-11.859 17.535-28.559 15.352-45.191-2.1836-16.629-11.98-31.297-26.504-39.688-14.527-8.3906-32.125-9.5469-47.625-3.1289-15.496 6.418-27.129 19.676-31.469 35.879-4.3438 16.199-0.90234 33.5 9.3047 46.809 10.211 13.309 26.031 21.109 42.805 21.109 14.305 0.015625 28.027-5.668 38.137-15.789zm-193.41-480.93c2.082-5.375 7.2578-8.918 13.023-8.918h59.242c-1.5469 9.2461-1.5469 18.684 0 27.93h-50.41l-44.086 93.473c-2.3008 4.8945-7.2266 8.0078-12.633 7.9844h-34.105c-1.0898-10.645-5.9531-20.547-13.715-27.914h39.031l43.656-92.613zm-113.33-63.676h0.003906c5.1797 0.003906 9.9336-2.8789 12.328-7.4766l62.805-120.37c-8.8789-2.8867-17.211-7.2383-24.656-12.871l-58.887 112.84h-179.71v27.93l188.12-0.003906zm288.08 273.63h-223.35c3.9258 8.8945 3.9258 19.031 0 27.926h223.35c-1.5469-9.2422-1.5469-18.684 0-27.926zm-152.84 218.87h50.414c-1.5469 9.2422-1.5469 18.684 0 27.926h-59.242c-5.7695 0.023437-10.953-3.5273-13.023-8.918l-43.656-92.613h-39.031 0.003906c6.6094-8.1602 11.297-17.707 13.703-27.93h34.105c5.4062-0.019531 10.332 3.0938 12.633 7.9844l44.086 93.473zm-60.098 210.54-62.805-120.37c-2.3945-4.5977-7.1484-7.4805-12.328-7.4766h-188.12v27.93l179.72-0.003906 58.887 112.84h0.003906c7.4375-5.6484 15.766-10.016 24.645-12.922z"
     fill-rule="evenodd"
     id="path1"
     style="fill:#ffffff;fill-opacity:1" />
</svg>
