<?xml version="1.0" encoding="UTF-8"?>
<svg width="100" height="100" enable-background="new 0 0 100 100" version="1.1" viewBox="0 0 100 100" xml:space="preserve" xmlns="http://www.w3.org/2000/svg"><g transform="translate(0 -12)" fill="#fff"><path d="m7 97 25-25 2.3 2.3 5.3-5.3c-4.5-5.4-7.1-12-7.1-20 0-17 14-31 31-31 17 0 31 14 31 31 0 17-14 31-31 31-7.4 0-14-2.6-20-6.9l-5.3 5.3 2.3 2.3-25 25c-1.3 1.3-2.9 1.9-4.5 1.9-1.6 0-3.3-0.63-4.5-1.9-2.5-2.5-2.5-6.6-1e-3 -9.1zm81-48c0-14-11-25-25-25-14 0-25 11-25 25 0 14 11 25 25 25 14 0 25-11 25-25z"/><path d="m52 37c-6 6-8.7 14-7.8 21-1.1-2.6-1.7-5.5-1.7-8.5 0-12 9.7-22 22-22 2.9 0 5.7 0.58 8.2 1.6-6.8-0.72-15 2-20 7.9z"/></g></svg>
