<?xml version="1.0" encoding="UTF-8"?>
<svg width="512" height="512" enable-background="new 0 0 512.126 512.126" version="1.1" viewBox="0 0 512.1 512.1" xmlns="http://www.w3.org/2000/svg">
 <path d="m198.5 278.3-13.58 79.2 71.13-37.39 71.13 37.39-13.58-79.2 57.54-56.09-79.52-11.56-35.56-72.06-35.56 72.06-79.52 11.56z" fill="#fff"/>
 <path d="m485.2 272.6c-15.74-7.675-33.23-7.812-48.36-1.833 0.173-3.236 0.266-6.493 0.266-9.771 0-5.564-0.261-11.08-0.751-16.55l0.606-0.107c15.78-2.783 29.54-11.55 38.73-24.67s12.72-29.05 9.939-44.83l-7.814-44.32-29.54 5.209c-15.78 2.783-29.54 11.55-38.73 24.67-0.5 0.714-0.975 1.439-1.442 2.169-4.75-7.294-10.06-14.28-15.9-20.91l0.429-0.444c11.13-11.53 17.11-26.7 16.83-42.73-0.28-16.02-6.783-30.98-18.31-42.11l-32.37-31.26-20.84 21.58c-22.98 23.8-22.32 61.86 1.48 84.84l21.59 20.85c29.73 28.72 46.1 67.29 46.1 108.6 0 83.26-67.74 151-151 151s-151-67.74-151-151c0-41.32 16.37-79.9 46.1-108.6l21.59-20.85c23.8-22.98 24.46-61.04 1.48-84.84l-20.84-21.58-32.37 31.26c-11.53 11.13-18.03 26.09-18.31 42.11-0.28 16.02 5.698 31.2 16.83 42.73l0.429 0.444c-5.838 6.631-11.15 13.61-15.9 20.91-0.466-0.73-0.942-1.455-1.442-2.169-9.192-13.13-22.95-21.89-38.73-24.67l-29.54-5.209-7.814 44.32c-2.783 15.78 0.747 31.7 9.939 44.83s22.95 21.89 38.73 24.67l0.607 0.107c-0.49 5.469-0.751 10.99-0.751 16.55 0 3.278 0.093 6.535 0.266 9.771-15.13-5.979-32.62-5.842-48.36 1.834l-26.96 13.15 19.73 40.44c7.025 14.4 19.24 25.21 34.39 30.43 6.403 2.205 13.01 3.3 19.58 3.3 8.99 0 17.94-2.046 26.25-6.104l0.605-0.295c4.52 7.567 9.574 14.78 15.11 21.58-15.79 4.04-29.9 14.44-38.14 29.94l-14.08 26.49 39.73 21.13c8.799 4.679 18.4 7.053 28.09 7.053 5.894-1e-3 11.82-0.879 17.62-2.651 15.33-4.686 27.91-15.06 35.44-29.21l0.298-0.56c7.664 3.305 15.6 6.091 23.77 8.323-7.728 10.1-12.33 22.71-12.33 36.38v15h30v-15c0-16.54 13.46-30 30-30s30 13.46 30 30v15h30v-15c0-13.67-4.605-26.28-12.33-36.38 8.165-2.231 16.1-5.018 23.77-8.323l0.298 0.56c7.524 14.15 20.11 24.52 35.44 29.21 5.797 1.772 11.72 2.651 17.62 2.651 9.69-1e-3 19.29-2.374 28.09-7.053l39.73-21.13-14.08-26.49c-8.238-15.49-22.35-25.9-38.14-29.94 5.54-6.803 10.6-14.01 15.11-21.58l0.606 0.296c8.319 4.057 17.26 6.103 26.25 6.103 6.578 0 13.18-1.096 19.58-3.3 15.15-5.218 27.37-16.02 34.39-30.43l19.73-40.44z" fill="#fff"/>
</svg>
